<svg width="24" height="24" viewBox="0 0 24 24" fill="none" xmlns="http://www.w3.org/2000/svg">
<path d="M12.275 9H19.4C18.95 7.85 18.2627 6.86233 17.338 6.037C16.4133 5.21167 15.3507 4.63267 14.15 4.3L11.85 8.25C11.75 8.41667 11.75 8.58333 11.85 8.75C11.95 8.91667 12.0917 9 12.275 9ZM8.675 10.25C8.775 10.4167 8.91667 10.5 9.1 10.5C9.28333 10.5 9.425 10.4167 9.525 10.25L13.1 4.1C12.9167 4.06667 12.7333 4.04167 12.55 4.025C12.3667 4.00833 12.1833 4 12 4C10.9 4 9.875 4.20833 8.925 4.625C7.975 5.04167 7.13333 5.6 6.4 6.3L8.675 10.25ZM4.25 14H8.825C9.00833 14 9.15433 13.9167 9.263 13.75C9.37167 13.5833 9.37567 13.4167 9.275 13.25L5.7 7.1C5.16667 7.78333 4.75 8.53767 4.45 9.363C4.15 10.1883 4 11.0673 4 12C4 12.35 4.021 12.6877 4.063 13.013C4.105 13.3383 4.16733 13.6673 4.25 14ZM9.85 19.7L12.125 15.75C12.225 15.5833 12.221 15.4167 12.113 15.25C12.005 15.0833 11.859 15 11.675 15H4.6C5.05 16.15 5.73767 17.1377 6.663 17.963C7.58833 18.7883 8.65067 19.3673 9.85 19.7ZM12 20C13.1 20 14.125 19.7917 15.075 19.375C16.025 18.9583 16.8667 18.4 17.6 17.7L15.325 13.75C15.225 13.5833 15.0833 13.5 14.9 13.5C14.7167 13.5 14.575 13.5833 14.475 13.75L10.9 19.9C11.0833 19.9333 11.2627 19.9583 11.438 19.975C11.6133 19.9917 11.8007 20 12 20ZM18.3 16.9C18.8333 16.2167 19.25 15.4627 19.55 14.638C19.85 13.8133 20 12.934 20 12C20 11.65 19.9793 11.3127 19.938 10.988C19.8967 10.6633 19.834 10.334 19.75 10H15.175C14.9917 10 14.846 10.0833 14.738 10.25C14.63 10.4167 14.6257 10.5833 14.725 10.75L18.3 16.9ZM12 22C10.6333 22 9.34167 21.7373 8.125 21.212C6.90833 20.6867 5.846 19.97 4.938 19.062C4.03 18.154 3.31333 17.0917 2.788 15.875C2.26267 14.6583 2 13.3667 2 12C2 10.6167 2.26267 9.321 2.788 8.113C3.31333 6.905 4.03 5.84667 4.938 4.938C5.846 4.02933 6.90833 3.31267 8.125 2.788C9.34167 2.26333 10.6333 2.00067 12 2C13.3833 2 14.6793 2.26267 15.888 2.788C17.0967 3.31333 18.1547 4.03 19.062 4.938C19.9693 5.846 20.686 6.90433 21.212 8.113C21.738 9.32167 22.0007 10.6173 22 12C22 13.3667 21.7373 14.6583 21.212 15.875C20.6867 17.0917 19.97 18.1543 19.062 19.063C18.154 19.9717 17.0957 20.6883 15.887 21.213C14.6783 21.7377 13.3827 22 12 22Z" fill="white"/>
</svg>
